<?xml version="1.0" encoding="UTF-8"?>
<svg xmlns="http://www.w3.org/2000/svg" xmlns:xlink="http://www.w3.org/1999/xlink" width="16px" height="16px" viewBox="0 0 16 16" version="1.1">
<g id="surface1">
<path style=" stroke:none;fill-rule:nonzero;fill:rgb(100%,100%,100%);fill-opacity:1;" d="M 1.683594 2.785156 L 1.316406 3.210938 C 1.878906 3.695312 2.34375 4.199219 2.71875 4.71875 L 0.5 4.71875 L 0.5 5.28125 L 3.082031 5.28125 C 3.589844 6.164062 3.84375 7.085938 3.84375 8 C 3.84375 8.914062 3.589844 9.835938 3.082031 10.71875 L 0.5 10.71875 L 0.5 11.28125 L 2.71875 11.28125 C 2.34375 11.800781 1.878906 12.304688 1.316406 12.789062 L 1.683594 13.210938 C 2.390625 12.605469 2.960938 11.960938 3.394531 11.28125 L 4.007812 11.28125 C 4.121094 11.097656 4.226562 10.910156 4.320312 10.71875 L 3.71875 10.71875 C 4.175781 9.835938 4.40625 8.921875 4.40625 8 C 4.40625 7.078125 4.175781 6.164062 3.71875 5.28125 L 4.320312 5.28125 C 4.226562 5.089844 4.121094 4.902344 4.007812 4.71875 L 3.394531 4.71875 C 2.960938 4.039062 2.390625 3.390625 1.683594 2.785156 Z M 3.644531 3.28125 C 4.894531 4.714844 5.53125 6.355469 5.53125 8 C 5.53125 9.644531 4.894531 11.285156 3.644531 12.71875 L 6 12.71875 C 7.066406 12.71875 8.558594 11.65625 9.726562 10.488281 C 10.3125 9.90625 10.824219 9.304688 11.183594 8.820312 C 11.367188 8.585938 11.507812 8.371094 11.601562 8.214844 C 11.648438 8.136719 11.679688 8.070312 11.703125 8.023438 C 11.707031 8.011719 11.710938 8.007812 11.710938 8 C 11.710938 7.992188 11.707031 7.984375 11.703125 7.972656 C 11.683594 7.929688 11.648438 7.863281 11.601562 7.785156 C 11.507812 7.625 11.367188 7.414062 11.191406 7.175781 C 10.835938 6.695312 10.332031 6.09375 9.75 5.511719 C 8.585938 4.34375 7.097656 3.28125 6 3.28125 Z M 12.203125 7.71875 C 12.210938 7.726562 12.214844 7.742188 12.21875 7.75 C 12.253906 7.824219 12.28125 7.886719 12.28125 8 C 12.28125 8.113281 12.25 8.175781 12.21875 8.25 C 12.214844 8.257812 12.210938 8.273438 12.203125 8.28125 L 15.5 8.28125 L 15.5 7.71875 Z M 12.203125 7.71875 "/>
</g>
</svg>
